# xmcd
#
# Track frame offsets:
#	150
#	15610
#	28119
#	45304
#	62750
#	75719
#	85869
#	100407
#	118805
#	135451
#	146200
#	158761
#	169399
#	188997
#
# Disc length: 2644 seconds
#
# Revision: 1
# Processed by: cddbd v1.5.2PL0 Copyright (c) Steve Scherf et al.
# Submitted via: audiograbber 1.83.01
#
DISCID=bc0a520e
DTITLE=Suzanne Prentice - Funny Face
DYEAR=2003
DGENRE=Country
TTITLE0=You Needed Me
TTITLE1=Four Strong Winds
TTITLE2=Let's Keep It That Way
TTITLE3=We're All Alone
TTITLE4=Womanhood
TTITLE5=Blue Eyes Crying In The Rain
TTITLE6=I'll Get Over You
TTITLE7=Queen Of The Silver Dollar
TTITLE8=Blanket On The Ground
TTITLE9=Brass Buckles
TTITLE10=San Antonio Stroll
TTITLE11=Love Is Like A Butterfly
TTITLE12=Back Home Again
TTITLE13=Funny Face
EXTD=
EXTT0=
EXTT1=
EXTT2=
EXTT3=
EXTT4=
EXTT5=
EXTT6=
EXTT7=
EXTT8=
EXTT9=
EXTT10=
EXTT11=
EXTT12=
EXTT13=
PLAYORDER=
